<svg xmlns:xlink="http://www.w3.org/1999/xlink" width="500" height="500" viewBox="0 0 200 200">
<g transform="rotate(-90)">
<path class="slice0" d="M0,0 L100,0 A100,100 0 0,1 70.71067811865476,70.71067811865474 Z" stroke="white" stroke-width="2" fill="#0034cb"/>
<path class="slice1" d="M0,0 L70.71067811865476,70.71067811865474 A100,100 0 0,1 6.123233995736766e-15,100 Z" stroke="white" stroke-width="2" fill="#4474c5"/>
<path class="slice2" d="M0,0 L6.123233995736766e-15,100 A100,100 0 0,1 -70.71067811865474,70.71067811865476 Z" stroke="white" stroke-width="2" fill="#44b3bd"/>
<path class="slice3" d="M0,0 L-70.71067811865474,70.71067811865476 A100,100 0 0,1 -100,1.2246467991473532e-14 Z" stroke="white" stroke-width="2" fill="#3dcab1"/>
<path class="slice4" d="M0,0 L-100,1.2246467991473532e-14 A100,100 0 0,1 -70.71067811865477,-70.71067811865474 Z" stroke="white" stroke-width="2" fill="#4B008C"/>
<path class="slice5" d="M0,0 L-70.71067811865477,-70.71067811865474 A100,100 0 0,1 -1.8369701987210297e-14,-100 Z" stroke="white" stroke-width="2" fill="#772b90"/>
<path class="slice6" d="M0,0 L-1.8369701987210297e-14,-100 A100,100 0 0,1 70.71067811865474,-70.71067811865477 Z" stroke="white" stroke-width="2" fill="#b96694"/>
<path class="slice7" d="M0,0 L70.71067811865474,-70.71067811865477 A100,100 0 0,1 100,-2.4492935982947064e-14 Z" stroke="white" stroke-width="2" fill="#f6a295"/>
<path class="slice8" d="M0,0 L100,-2.4492935982947064e-14 A100,100 0 0,1 100,-2.4492935982947064e-14 Z" stroke="white" stroke-width="2" fill="#ff8f7a"/>
</g>
<circle r="68" cx="0" cy="0" fill="white"/>
</svg>