<svg xmlns="http://www.w3.org/2000/svg" id="sv" width="200" height="200" viewBox="0 0 200 200"><path id="0" fill="#cccccc" d="M104.3619387365336, 0.09517784181421973 A100,100 0 0 1 160.87460437521196,20.66348544231714 L136.52476262512718,52.398091265390285 A60,60 0 0 0 102.61716324192017,40.05710670508853 Z"></path><path id="1" fill="#ff6e24" d="M167.55759098030398, 26.2709561913492 A100,100 0 0 1 197.62876117547447,78.35225204918146 L158.5772567052847,87.01135122950888 A60,60 0 0 0 140.5345545881824,55.76257371480952 Z"></path><path id="2" fill="#d8e499" d="M199.1439798157406, 86.94353545955033 A100,100 0 0 1 188.70376951224932,146.16970082551705 L153.2222617073496,127.70182049531024 A60,60 0 0 0 159.48638788944436,92.1661212757302 Z"></path><path id="3" fill="#1beb3d" d="M184.34227032096987, 153.72505409121933 A100,100 0 0 1 138.2755096723619,192.38498449055956 L122.96530580341714,155.43099069433575 A60,60 0 0 0 150.60536219258194,132.2350324547316 Z"></path><path id="4" fill="#9c6d74" d="M130.07797786036062, 195.36936220732346 A100,100 0 0 1 69.9386676914292,195.37461035219843 L81.96320061485751,157.22476621131906 A60,60 0 0 0 118.04678671621636,157.22161732439406 Z"></path><path id="5" fill="#c601b5" d="M61.74061513211338, 192.39166342008855 A100,100 0 0 1 15.667107754435875,153.73977377602245 L49.40026465266152,132.24386426561347 A60,60 0 0 0 77.04436907926802,155.43499805205312 Z"></path><path id="6" fill="#185907" d="M11.304289971686188, 146.18518185060304 A100,100 0 0 1 0.8537429113710999,86.96083954713708 L40.512245746822664,92.17650372828224 A60,60 0 0 0 46.782573983011716,127.71110911036182 Z"></path><path id="7" fill="#4dd650" d="M2.3674620667419077, 78.36929181208069 A100,100 0 0 1 32.429541903034064,26.282748338220244 L59.45772514182044,55.76964900293214 A60,60 0 0 0 41.420477240045145,87.02157508724841 Z"></path><path id="8" fill="#9bcd90" d="M39.11154971807059, 20.67411127339946 A100,100 0 0 1 95.62062464913805,0.09594066537505341 L97.37237478948283,40.05756439922503 A60,60 0 0 0 63.46692983084235,52.40446676403968 Z"></path></svg>