<?xml version="1.0" standalone="no"?>
<!DOCTYPE svg PUBLIC "-//W3C//DTD SVG 20010904//EN"
 "http://www.w3.org/TR/2001/REC-SVG-20010904/DTD/svg10.dtd">
<svg version="1.0" xmlns="http://www.w3.org/2000/svg"
 width="1280.000000pt" height="368.000000pt" viewBox="0 0 1280.000000 368.000000"
 preserveAspectRatio="xMidYMid meet">
<metadata>
Created by potrace 1.16, written by Peter Selinger 2001-2019
</metadata>
<g transform="translate(0.000000,368.000000) scale(0.100000,-0.100000)"
fill="#000000" stroke="none">
<path d="M6994 3259 c-236 -25 -544 -91 -939 -201 -137 -38 -322 -90 -410
-114 -644 -180 -1366 -316 -2275 -429 -435 -53 -391 -53 -565 0 -868 264
-1421 252 -2339 -52 l-140 -46 -163 7 -163 7 0 -539 0 -538 172 -27 c1573
-250 2161 -306 3112 -294 458 5 594 13 1271 72 815 70 958 78 1465 78 555 0
881 -18 1575 -88 731 -74 1032 -91 1351 -75 301 15 442 34 929 125 187 35 394
73 460 84 737 125 1241 79 2229 -204 126 -36 231 -64 233 -62 2 2 2 451 1 998
l-3 995 -265 -78 c-1070 -314 -1642 -371 -2430 -243 -342 56 -677 141 -1245
315 -632 194 -943 270 -1245 305 -145 16 -477 18 -616 4z"/>
</g>
</svg>
