<?xml version="1.0" encoding="UTF-8" standalone="no"?>
<svg
   id="visual"
   viewBox="0 0 900 80"
   width="900"
   height="80"
   version="1.1"
   sodipodi:docname="waves.svg"
   inkscape:version="1.1.1 (3bf5ae0d25, 2021-09-20)"
   xmlns:inkscape="http://www.inkscape.org/namespaces/inkscape"
   xmlns:sodipodi="http://sodipodi.sourceforge.net/DTD/sodipodi-0.dtd"
   xmlns="http://www.w3.org/2000/svg"
   xmlns:svg="http://www.w3.org/2000/svg">
  <defs
     id="defs41" />
  <sodipodi:namedview
     id="namedview39"
     pagecolor="#ffffff"
     bordercolor="#666666"
     borderopacity="1.0"
     inkscape:pageshadow="2"
     inkscape:pageopacity="0.0"
     inkscape:pagecheckerboard="0"
     showgrid="false"
     height="70px"
     width="880px"
     fit-margin-top="0"
     fit-margin-left="0"
     fit-margin-right="0"
     fit-margin-bottom="0"
     inkscape:zoom="1.74"
     inkscape:cx="454.88506"
     inkscape:cy="224.42529"
     inkscape:window-width="1920"
     inkscape:window-height="1001"
     inkscape:window-x="-9"
     inkscape:window-y="-9"
     inkscape:window-maximized="1"
     inkscape:current-layer="visual" />
  <rect
     x="0"
     y="0"
     width="900"
     height="79.310349"
     fill="#e4e4e7"
     id="rect26"
     style="stroke-width:0.419816" />
  <path
     d="M 2.5988769e-8,17.310333 25.000001,17.610333 c 25,0.4 74.999997,1 124.999989,-0.8 50,-1.8 100,-6.2 150,-6.3 50,-0.2 100,3.8 150,5.3 50,1.5 100,0.5 150,-1.7 50,-2.1 100,-5.4999997 150,-6.0999997 50,-0.7 100,1.2999999 125,2.2999997 l 25,1 v 69 h -25 c -25,0 -75,0 -125,0 -50,0 -100,0 -150,0 -50,0 -100,0 -150,0 -50,0 -100,0 -150,0 -50,0 -100,0 -150,0 -49.999992,0 -99.999989,0 -124.999989,0 H 2.5988769e-8 Z"
     fill="#001122"
     id="path28" />
  <path
     d="M 2.5988769e-8,15.310333 25.000001,18.610333 c 25,3.4 74.999997,10 124.999989,12 50,2 100,-0.6 150,-2.3 50,-1.7 100,-2.3 150,-3.5 50,-1.2 100,-2.8 150,-1.5 50,1.3 100,5.7 150,7 50,1.3 100,-0.3 125,-1.2 l 25,-0.8 v 52 h -25 c -25,0 -75,0 -125,0 -50,0 -100,0 -150,0 -50,0 -100,0 -150,0 -50,0 -100,0 -150,0 -50,0 -100,0 -150,0 -49.999992,0 -99.999989,0 -124.999989,0 H 2.5988769e-8 Z"
     fill="#363e4d"
     id="path30" />
  <path
     d="M 2.5988769e-8,39.310333 25.000001,40.010333 c 25,0.6 74.999997,2 124.999989,1.6 50,-0.3 100,-2.3 150,-1.1 50,1.1 100,5.5 150,5 50,-0.5 100,-5.9 150,-8.4 50,-2.5 100,-2.1 150,-2 50,0.2 100,0.2 125,0.2 h 25 v 45 h -25 c -25,0 -75,0 -125,0 -50,0 -100,0 -150,0 -50,0 -100,0 -150,0 -50,0 -100,0 -150,0 -50,0 -100,0 -150,0 -49.999992,0 -99.999989,0 -124.999989,0 H 2.5988769e-8 Z"
     fill="#6d717d"
     id="path32" />
  <path
     d="M 2.5988769e-8,54.310333 25.000001,52.610333 c 25,-1.6 74.999997,-5 124.999989,-7.3 50,-2.3 100,-3.7 150,-1.8 50,1.8 100,6.8 150,9 50,2.1 100,1.5 150,0.6 50,-0.8 100,-1.8 150,-3 50,-1.1 100,-2.5 125,-3.1 l 25,-0.7 v 34 h -25 c -25,0 -75,0 -125,0 -50,0 -100,0 -150,0 -50,0 -100,0 -150,0 -50,0 -100,0 -150,0 -50,0 -100,0 -150,0 -49.999992,0 -99.999989,0 -124.999989,0 H 2.5988769e-8 Z"
     fill="#a7a8b0"
     id="path34" />
  <path
     d="M 2.5988769e-8,72.310333 25.000001,69.610333 c 25,-2.6 74.999997,-8 124.999989,-10.5 50,-2.5 100,-2.1 150,-2.1 50,0 100,-0.4 150,2.1 50,2.5 100,7.9 150,8.9 50,1 100,-2.4 150,-4.9 50,-2.5 100,-4.1 125,-5 l 25,-0.8 v 23 h -25 c -25,0 -75,0 -125,0 -50,0 -100,0 -150,0 -50,0 -100,0 -150,0 -50,0 -100,0 -150,0 -50,0 -100,0 -150,0 -49.999992,0 -99.999989,0 -124.999989,0 H 2.5988769e-8 Z"
     fill="#e4e4e7"
     id="path36" />
</svg>
